# xmcd
#
# Track frame offsets:
#	150
#	6550
#	22725
#	37472
#	51767
#	63849
#	77586
#	91684
#	107243
#	131019
#	145203
#	168391
#	182321
#	197244
#	209172
#	241294
#	254188
#	271282
#
# Disc length: 3663 seconds
#
# Revision: 1
# Processed by: cddbd v1.5.2PL0 Copyright (c) Steve Scherf et al.
# Submitted via: audiograbber 1.83.01
#
DISCID=060e4d12
DTITLE=Duke Robillard - The Acoustic Blues and Roots Of
DYEAR=2015
DGENRE=Blues
TTITLE0=My Old Kentucky Home
TTITLE1=Big Bill Blues
TTITLE2=I Miss My Baby in My Arms
TTITLE3=Jimmie's Texas Blues
TTITLE4=Backyard Paradise
TTITLE5=Evangeline
TTITLE6=Left Handed
TTITLE7=I'd Rather Drink Muddy Water
TTITLE8=I'm Gonna Buy Me a Dog (To Take the Place of You)
TTITLE9=Nashville Blues
TTITLE10=Saint Louis Blues
TTITLE11=What Is It That Tastes Like Gravy?
TTITLE12=Someday Baby
TTITLE13=Let's Turn Back the Years
TTITLE14=Take a Little Walk With Me
TTITLE15=Santa Claus Blues
TTITLE16=Profoundly Blue
TTITLE17=Ukulele Swing
EXTD=
EXTT0=
EXTT1=
EXTT2=
EXTT3=
EXTT4=
EXTT5=
EXTT6=
EXTT7=
EXTT8=
EXTT9=
EXTT10=
EXTT11=
EXTT12=
EXTT13=
EXTT14=
EXTT15=
EXTT16=
EXTT17=
PLAYORDER=
